<svg version="1.1" xmlns="http://www.w3.org/2000/svg" xmlns:xlink="http://www.w3.org/1999/xlink" width="196.66633" height="86.4878" viewBox="0,0,196.66633,86.4878"><g transform="translate(-157.36534,-174.04613)"><g data-paper-data="{&quot;isPaintingLayer&quot;:true}" fill-rule="nonzero" stroke="none" stroke-linecap="butt" stroke-linejoin="miter" stroke-miterlimit="10" stroke-dasharray="" stroke-dashoffset="0" style="mix-blend-mode: normal"><path d="M250.74709,217.29003c0,23.88295 -20.90422,43.2439 -46.69087,43.2439c-25.78666,0 -46.69087,-19.36095 -46.69087,-43.2439c0,-23.88295 20.90422,-43.2439 46.69087,-43.2439c25.78666,0 46.69087,19.36095 46.69087,43.2439z" fill="#ff0000" stroke-width="0"/><text transform="translate(257.64105,227.3176) scale(0.5,0.5)" font-size="40" xml:space="preserve" fill="#ff7b7b" fill-rule="nonzero" stroke="none" stroke-width="1" stroke-linecap="butt" stroke-linejoin="miter" stroke-miterlimit="10" stroke-dasharray="" stroke-dashoffset="0" font-family="Sans Serif" font-weight="normal" text-anchor="start" style="mix-blend-mode: normal"><tspan x="0" dy="0">Moonshin</tspan></text><path d="M181.80065,230.45122c0,2.5 -2.5,2.5 -2.5,2.5l-0.13541,-0.26393c-1.01685,0.4835 -1.95005,1.21247 -3.05054,1.4505c-8.50791,1.8402 -10.79854,-7.63515 -9.94961,-14.0196c0.87523,-6.5822 5.03908,-10.88126 10.95364,-13.29675c0,0 2.32119,-0.92848 3.24967,1.39272c0.92848,2.32119 -1.39272,3.24967 -1.39272,3.24967c-4.18237,1.62956 -7.30683,4.50502 -7.84806,9.26528c-0.25948,2.28218 -0.4614,9.91 3.8383,8.54244c0.70818,-0.22524 1.30883,-0.70426 1.96324,-1.05639l2.37148,-0.26393c0,0 2.5,0 2.5,2.5z" fill="#ff7b7b" stroke-width="0.5"/><path d="M204.98108,226.1547c0.74012,0.17595 1.8885,0.72196 1.8885,2.41634c0,2.5 -2.5,2.5 -2.5,2.5l-2.52513,-0.87333c-2.20909,-2.59096 -4.32569,-5.3457 -5.56511,-8.43889c-1.85298,4.21462 -7.09179,9.4535 -11.42853,5.21713c-0.61816,-0.60385 -0.54164,-5.30921 -0.52949,-6.55232c0.0466,-4.76734 0.38763,-8.40242 5.68596,-9.9538c0.98594,-0.28869 2.05418,-0.04459 3.08127,-0.06688c0,0 2.2997,0 2.4878,2.20565c0.26753,0.15219 0.50424,0.35233 0.69842,0.58873l3.12139,3.74567l-0.02748,0.0229c0.06714,0.06891 0.13356,0.13863 0.19919,0.20919c0.99302,1.06746 1.25175,2.63618 1.9684,3.90582c1.00421,1.7791 2.15647,3.48537 3.4448,5.07378zM191.15605,215.33609c-3.35062,0.53801 -1.42531,4.55076 -1.77357,7.15395c0.02013,-0.0273 0.03957,-0.05205 0.05814,-0.07382c0.48865,-0.5728 1.15942,-0.97845 1.61983,-1.57418c1.17091,-1.51504 0.84479,-1.72477 0.78155,-3.55201v-1.98521c-0.22992,-0.00996 -0.45893,-0.00519 -0.68596,0.03127z" fill="#ff7b7b" stroke-width="0.5"/><path d="M216.90404,226.05726c-2.5,0 -2.5,-2.5 -2.5,-2.5l0.07464,-1.23306c0.52321,-2.02205 0.20486,-4.1881 0.61896,-6.23527c0.38727,-1.91458 1.49356,-3.6381 1.86184,-5.55642c0,0 0.49029,-2.45145 2.94174,-1.96116c2.45145,0.49029 1.96116,2.94174 1.96116,2.94174c-0.40663,1.96885 -1.5093,3.75223 -1.8985,5.7246c-0.40855,2.07043 -0.13594,4.24857 -0.63449,6.29919l0.07464,0.02038c0,0 0,2.5 -2.5,2.5z" fill="#ff7b7b" stroke-width="0.5"/><path d="M215.65749,190.96766c0,-1.38071 1.11929,-2.5 2.5,-2.5c1.38071,0 2.5,1.11929 2.5,2.5c0,1.38071 -1.11929,2.5 -2.5,2.5c-1.38071,0 -2.5,-1.11929 -2.5,-2.5z" fill="#ff7b7b" stroke-width="0.5"/></g></g></svg>